<svg xmlns="http://www.w3.org/2000/svg" viewBox="0 0 64 64">
  <circle cx="32" cy="32" r="30" fill="#f5f0e6"/>
  <circle cx="32" cy="32" r="30" fill="none" stroke="#0C2340" stroke-width="2"/>
  <path d="M14 12 C 22 22, 22 42, 14 52" fill="none" stroke="#C8102E" stroke-width="2.5"/>
  <path d="M50 12 C 42 22, 42 42, 50 52" fill="none" stroke="#C8102E" stroke-width="2.5"/>
  <g stroke="#C8102E" stroke-width="1.2">
    <line x1="16.5" y1="15" x2="20" y2="16.5"/>
    <line x1="14.5" y1="20" x2="18" y2="21"/>
    <line x1="13.5" y1="26" x2="17.3" y2="26.5"/>
    <line x1="13.5" y1="38" x2="17.3" y2="37.5"/>
    <line x1="14.5" y1="44" x2="18" y2="43"/>
    <line x1="16.5" y1="49" x2="20" y2="47.5"/>
    <line x1="47.5" y1="15" x2="44" y2="16.5"/>
    <line x1="49.5" y1="20" x2="46" y2="21"/>
    <line x1="50.5" y1="26" x2="46.7" y2="26.5"/>
    <line x1="50.5" y1="38" x2="46.7" y2="37.5"/>
    <line x1="49.5" y1="44" x2="46" y2="43"/>
    <line x1="47.5" y1="49" x2="44" y2="47.5"/>
  </g>
</svg>
